<mxfile host="app.diagrams.net" modified="2023-09-14T03:37:05.277Z" agent="Mozilla/5.0 (Macintosh; Intel Mac OS X 10_15_7) AppleWebKit/605.1.15 (KHTML, like Gecko) Version/16.5 Safari/605.1.15" etag="aC7ixj6YhVQLWRtz1Iuw" version="21.7.5" type="github">
  <diagram name="Page-1" id="y6FPKIaXaW5Mr9hPLA4b">
    <mxGraphModel dx="827" dy="647" grid="1" gridSize="10" guides="1" tooltips="1" connect="1" arrows="1" fold="1" page="1" pageScale="1" pageWidth="850" pageHeight="1100" math="0" shadow="0">
      <root>
        <mxCell id="0" />
        <mxCell id="1" parent="0" />
        <mxCell id="Jl_EnqVgJ7W5Pl3jvxYH-8" value="Piano" style="swimlane;fontStyle=0;childLayout=stackLayout;horizontal=1;startSize=26;horizontalStack=0;resizeParent=1;resizeParentMax=0;resizeLast=0;collapsible=1;marginBottom=0;align=center;fontSize=14;" vertex="1" parent="1">
          <mxGeometry x="100" y="160" width="160" height="86" as="geometry" />
        </mxCell>
        <mxCell id="Jl_EnqVgJ7W5Pl3jvxYH-9" value="SerialNumber" style="text;strokeColor=none;fillColor=none;spacingLeft=4;spacingRight=4;overflow=hidden;rotatable=0;points=[[0,0.5],[1,0.5]];portConstraint=eastwest;fontSize=12;whiteSpace=wrap;html=1;fontStyle=4" vertex="1" parent="Jl_EnqVgJ7W5Pl3jvxYH-8">
          <mxGeometry y="26" width="160" height="30" as="geometry" />
        </mxCell>
        <mxCell id="Jl_EnqVgJ7W5Pl3jvxYH-10" value="CompletionDate" style="text;strokeColor=none;fillColor=none;spacingLeft=4;spacingRight=4;overflow=hidden;rotatable=0;points=[[0,0.5],[1,0.5]];portConstraint=eastwest;fontSize=12;whiteSpace=wrap;html=1;" vertex="1" parent="Jl_EnqVgJ7W5Pl3jvxYH-8">
          <mxGeometry y="56" width="160" height="30" as="geometry" />
        </mxCell>
        <mxCell id="Jl_EnqVgJ7W5Pl3jvxYH-22" value="" style="edgeStyle=entityRelationEdgeStyle;fontSize=12;html=1;endArrow=ERoneToMany;startArrow=ERmandOne;rounded=0;exitX=1;exitY=0.933;exitDx=0;exitDy=0;exitPerimeter=0;" edge="1" parent="Jl_EnqVgJ7W5Pl3jvxYH-8" source="Jl_EnqVgJ7W5Pl3jvxYH-13">
          <mxGeometry width="100" height="100" relative="1" as="geometry">
            <mxPoint x="215" y="113" as="sourcePoint" />
            <mxPoint y="50" as="targetPoint" />
            <Array as="points">
              <mxPoint x="518.04" y="152.01" />
              <mxPoint x="368.03999999999996" y="112.00999999999999" />
              <mxPoint x="498.03999999999996" y="112.00999999999999" />
              <mxPoint x="298.03999999999996" y="112.00999999999999" />
              <mxPoint x="355" y="12" />
              <mxPoint x="398.03999999999996" y="62.00999999999999" />
            </Array>
          </mxGeometry>
        </mxCell>
        <mxCell id="Jl_EnqVgJ7W5Pl3jvxYH-12" value="Model" style="swimlane;fontStyle=0;childLayout=stackLayout;horizontal=1;startSize=26;horizontalStack=0;resizeParent=1;resizeParentMax=0;resizeLast=0;collapsible=1;marginBottom=0;align=center;fontSize=14;" vertex="1" parent="1">
          <mxGeometry x="100" y="330" width="160" height="86" as="geometry" />
        </mxCell>
        <mxCell id="Jl_EnqVgJ7W5Pl3jvxYH-13" value="IdentificationNumber" style="text;strokeColor=none;fillColor=none;spacingLeft=4;spacingRight=4;overflow=hidden;rotatable=0;points=[[0,0.5],[1,0.5]];portConstraint=eastwest;fontSize=12;whiteSpace=wrap;html=1;fontStyle=4" vertex="1" parent="Jl_EnqVgJ7W5Pl3jvxYH-12">
          <mxGeometry y="26" width="160" height="30" as="geometry" />
        </mxCell>
        <mxCell id="Jl_EnqVgJ7W5Pl3jvxYH-15" value="Name" style="text;strokeColor=none;fillColor=none;spacingLeft=4;spacingRight=4;overflow=hidden;rotatable=0;points=[[0,0.5],[1,0.5]];portConstraint=eastwest;fontSize=12;whiteSpace=wrap;html=1;" vertex="1" parent="Jl_EnqVgJ7W5Pl3jvxYH-12">
          <mxGeometry y="56" width="160" height="30" as="geometry" />
        </mxCell>
        <mxCell id="Jl_EnqVgJ7W5Pl3jvxYH-23" value="Designer" style="swimlane;fontStyle=0;childLayout=stackLayout;horizontal=1;startSize=26;horizontalStack=0;resizeParent=1;resizeParentMax=0;resizeLast=0;collapsible=1;marginBottom=0;align=center;fontSize=14;" vertex="1" parent="1">
          <mxGeometry x="360" y="340" width="160" height="86" as="geometry" />
        </mxCell>
        <mxCell id="Jl_EnqVgJ7W5Pl3jvxYH-24" value="Number&lt;br&gt;" style="text;strokeColor=none;fillColor=none;spacingLeft=4;spacingRight=4;overflow=hidden;rotatable=0;points=[[0,0.5],[1,0.5]];portConstraint=eastwest;fontSize=12;whiteSpace=wrap;html=1;fontStyle=4" vertex="1" parent="Jl_EnqVgJ7W5Pl3jvxYH-23">
          <mxGeometry y="26" width="160" height="30" as="geometry" />
        </mxCell>
        <mxCell id="Jl_EnqVgJ7W5Pl3jvxYH-25" value="Name" style="text;strokeColor=none;fillColor=none;spacingLeft=4;spacingRight=4;overflow=hidden;rotatable=0;points=[[0,0.5],[1,0.5]];portConstraint=eastwest;fontSize=12;whiteSpace=wrap;html=1;" vertex="1" parent="Jl_EnqVgJ7W5Pl3jvxYH-23">
          <mxGeometry y="56" width="160" height="30" as="geometry" />
        </mxCell>
        <mxCell id="Jl_EnqVgJ7W5Pl3jvxYH-27" value="" style="edgeStyle=entityRelationEdgeStyle;fontSize=12;html=1;endArrow=ERoneToMany;startArrow=ERoneToMany;rounded=0;exitX=1;exitY=0.5;exitDx=0;exitDy=0;" edge="1" parent="1" source="Jl_EnqVgJ7W5Pl3jvxYH-15">
          <mxGeometry width="100" height="100" relative="1" as="geometry">
            <mxPoint x="310" y="420" as="sourcePoint" />
            <mxPoint x="360" y="400" as="targetPoint" />
          </mxGeometry>
        </mxCell>
      </root>
    </mxGraphModel>
  </diagram>
</mxfile>
